<?xml version="1.0" encoding="iso-8859-1"?>
<!-- Generator: Adobe Illustrator 19.0.0, SVG Export Plug-In . SVG Version: 6.00 Build 0)  -->
<svg version="1.1" id="Layer_1" xmlns="http://www.w3.org/2000/svg" xmlns:xlink="http://www.w3.org/1999/xlink" x="0px" y="0px"
	 viewBox="0 0 512 512" style="enable-background:new 0 0 512 512;" xml:space="preserve">
<g>
	<g>
		<path d="M443.13,72.348H68.87C30.897,72.348,0,103.245,0,141.217v229.565c0,37.973,30.897,68.87,68.87,68.87H443.13
			c37.978,0,68.87-30.897,68.87-68.87V141.217C512,103.245,481.109,72.348,443.13,72.348z M100.174,289.391
			c0,9.223-7.473,16.696-16.696,16.696s-16.696-7.473-16.696-16.696v-66.783c0-9.223,7.473-16.696,16.696-16.696
			s16.696,7.473,16.696,16.696V289.391z M378.435,356.174c0,9.223-7.473,16.696-16.696,16.696H150.261
			c-9.223,0-16.696-7.473-16.696-16.696V155.826c0-9.223,7.473-16.696,16.696-16.696h211.478c9.223,0,16.696,7.473,16.696,16.696
			V356.174z M428.522,272.696c-9.22,0-16.696-7.475-16.696-16.696s7.475-16.696,16.696-16.696s16.696,7.475,16.696,16.696
			S437.742,272.696,428.522,272.696z"/>
	</g>
</g>
<g>
	<g>
		<path d="M301.196,238.631l-33.37-33.37c-6.563-6.59-17.201-6.478-23.651,0l-33.37,33.37c-6.522,6.516-6.522,17.092-0.001,23.609
			c6.521,6.521,17.087,6.521,23.609,0l4.892-4.892v37.609c0,9.223,7.473,16.696,16.696,16.696c9.223,0,16.696-7.473,16.696-16.696
			v-37.609l4.892,4.892c6.522,6.522,17.086,6.522,23.609,0C307.718,255.723,307.718,245.147,301.196,238.631z"/>
	</g>
</g>
<g>
</g>
<g>
</g>
<g>
</g>
<g>
</g>
<g>
</g>
<g>
</g>
<g>
</g>
<g>
</g>
<g>
</g>
<g>
</g>
<g>
</g>
<g>
</g>
<g>
</g>
<g>
</g>
<g>
</g>
</svg>
