<?xml version="1.0" encoding="UTF-8" standalone="no"?>
<!-- Created with Inkscape (http://www.inkscape.org/) -->

<svg
   width="105.54691mm"
   height="18.347466mm"
   viewBox="0 0 105.54691 18.347466"
   version="1.1"
   id="svg5"
   xmlns="http://www.w3.org/2000/svg"
   xmlns:svg="http://www.w3.org/2000/svg">
  <defs
     id="defs2" />
  <g
     id="layer1"
     transform="translate(-96.983363,-98.553166)">
    <g
       id="g969">
      <g
         aria-label="_"
         transform="scale(2.0265395,0.49345202)"
         id="text439"
         style="font-size:65.5956px;-inkscape-font-specification:sans-serif;stroke-width:5.46629">
        <path
           d="M 94.876853,236.60881 H 52.918732 v -3.8435 h 41.958121 z"
           id="path936" />
      </g>
      <g
         aria-label="TRENDUP"
         id="text63"
         style="font-size:17.0757px;-inkscape-font-specification:sans-serif;stroke-width:1.42297">
        <path
           d="m 119.57418,103.65257 h -4.43568 v 10.94746 h -1.65087 v -10.94746 h -4.43568 v -1.46744 h 10.52223 z"
           id="path939" />
        <path
           d="m 131.51383,114.60003 h -2.1428 l -4.15219,-4.93595 h -2.32624 v 4.93595 h -1.65087 v -12.4149 h 3.47684 q 1.1256,0 1.87599,0.15008 0.7504,0.14174 1.35072,0.51694 0.67536,0.42522 1.05055,1.07557 0.38354,0.642 0.38354,1.63419 0,1.34238 -0.67536,2.25119 -0.67535,0.90048 -1.85931,1.35906 z m -3.86037,-8.92139 q 0,-0.53361 -0.19177,-0.94216 -0.18343,-0.41689 -0.61699,-0.70037 -0.35853,-0.2418 -0.85045,-0.33351 -0.49193,-0.10006 -1.15895,-0.10006 h -1.9427 v 4.68582 h 1.66755 q 0.78375,0 1.36739,-0.13341 0.58365,-0.14174 0.9922,-0.51694 0.37519,-0.35018 0.55029,-0.80042 0.18343,-0.45858 0.18343,-1.15895 z"
           id="path941" />
        <path
           d="m 141.29401,114.60003 h -8.17933 v -12.4149 h 8.17933 v 1.46744 h -6.52846 v 3.4018 h 6.52846 v 1.46744 h -6.52846 v 4.61078 h 6.52846 z"
           id="path943" />
        <path
           d="m 153.38374,114.60003 h -2.04275 l -5.88645,-11.10588 v 11.10588 h -1.54248 v -12.4149 h 2.55969 l 5.3695,10.13869 v -10.13869 h 1.54249 z"
           id="path945" />
        <path
           d="m 167.17437,108.40508 q 0,1.69257 -0.74206,3.06829 -0.73372,1.37573 -1.95937,2.13447 -0.85045,0.52528 -1.90101,0.75873 -1.04221,0.23346 -2.75145,0.23346 h -3.13499 v -12.4149 h 3.10164 q 1.81762,0 2.88486,0.26681 1.07557,0.25847 1.81762,0.71704 1.26734,0.79209 1.97605,2.10945 0.70871,1.31736 0.70871,3.12665 z m -1.72591,-0.025 q 0,-1.4591 -0.50861,-2.45963 -0.5086,-1.00053 -1.51747,-1.57584 -0.73372,-0.41688 -1.55916,-0.5753 -0.82543,-0.16676 -1.97604,-0.16676 h -1.55082 v 9.58007 h 1.55082 q 1.1923,0 2.0761,-0.17509 0.89214,-0.17509 1.6342,-0.65034 0.92549,-0.59198 1.38406,-1.55916 0.46692,-0.96718 0.46692,-2.41795 z"
           id="path947" />
        <path
           d="m 179.18906,109.61406 q 0,1.35071 -0.30016,2.35958 -0.29182,1.00053 -0.96718,1.66755 -0.64201,0.63367 -1.50079,0.92549 -0.85879,0.29182 -2.00106,0.29182 -1.16729,0 -2.03441,-0.3085 -0.86713,-0.30849 -1.45911,-0.90881 -0.67536,-0.6837 -0.97551,-1.65088 -0.29183,-0.96717 -0.29183,-2.37625 v -7.42893 h 1.65088 v 7.51231 q 0,1.00886 0.1334,1.5925 0.14174,0.58365 0.46692,1.0589 0.36686,0.54195 0.99219,0.8171 0.63367,0.27514 1.51747,0.27514 0.89214,0 1.51747,-0.26681 0.62533,-0.27514 1.00053,-0.82543 0.32517,-0.47525 0.45857,-1.08391 0.14174,-0.61699 0.14174,-1.52581 v -7.55399 h 1.65088 z"
           id="path949" />
        <path
           d="m 190.46168,105.93711 q 0,0.82544 -0.29182,1.53415 -0.28348,0.70037 -0.80042,1.21731 -0.64201,0.642 -1.51747,0.96718 -0.87546,0.31683 -2.2095,0.31683 h -1.65088 v 4.62745 h -1.65087 v -12.4149 h 3.36845 q 1.11726,0 1.89267,0.19177 0.77541,0.18343 1.37573,0.58364 0.7087,0.47525 1.09224,1.18396 0.39187,0.70871 0.39187,1.79261 z m -1.71757,0.0417 q 0,-0.64201 -0.22512,-1.11726 -0.22512,-0.47525 -0.6837,-0.77541 -0.40021,-0.25847 -0.91715,-0.36686 -0.5086,-0.11673 -1.29235,-0.11673 h -1.6342 v 4.96096 h 1.39241 q 1.00053,0 1.62586,-0.17509 0.62533,-0.18343 1.0172,-0.57531 0.39188,-0.40021 0.55029,-0.84211 0.16676,-0.4419 0.16676,-0.99219 z"
           id="path951" />
      </g>
      <path
         id="text447"
         style="font-size:29.6481px;font-family:sans-serif;-inkscape-font-specification:sans-serif;fill:#000000;stroke-width:2.47067"
         transform="matrix(0,0.95980977,-1.0418731,0,0,0)"
         d="m 102.67989,-182.80706 h 18.96416 v -1.73698 h -18.05103 c -0.0444,0.0321 -0.0891,0.0638 -0.13353,0.0957 -0.0638,0.0451 -0.12668,0.0922 -0.1949,0.13144 -0.0106,0.005 -0.0207,0.0104 -0.0312,0.0154 -0.11074,0.0805 -0.22547,0.15597 -0.3435,0.22717 -0.0692,0.0421 -0.13901,0.0831 -0.20997,0.12251 z" />
      <path
         id="text451"
         style="font-size:29.6481px;font-family:sans-serif;-inkscape-font-specification:sans-serif;fill:#000000;stroke-width:2.47067"
         d="m 200.28585,-94.460707 -1e-4,1.737303 18.96438,8e-5 10e-5,-1.737303 z"
         transform="matrix(0.55877577,0.78038738,-0.84711016,0.60655085,0,0)" />
      <path
         id="path930"
         style="font-size:29.6481px;font-family:sans-serif;-inkscape-font-specification:sans-serif;fill:#000000;stroke-width:2.47067"
         d="m 200.28585,-94.460707 -1e-4,1.737303 18.96438,8e-5 10e-5,-1.737303 z"
         transform="matrix(0.55877577,0.78038738,-0.84711016,0.60655085,0,0)" />
      <path
         id="path932"
         style="font-size:29.6481px;font-family:sans-serif;-inkscape-font-specification:sans-serif;fill:#000000;stroke-width:2.47067"
         d="m 109.05187,98.698638 v 18.201992 h -1.80971 V 99.57507 c 0.0334,-0.0426 0.0665,-0.0855 0.0997,-0.12816 0.047,-0.0612 0.0961,-0.12159 0.13694,-0.187072 0.005,-0.0102 0.0108,-0.0199 0.0161,-0.0299 0.0839,-0.10629 0.1625,-0.21641 0.23668,-0.32969 0.0439,-0.0664 0.0866,-0.13343 0.12764,-0.20153 z" />
      <path
         id="path934"
         style="font-size:29.6481px;font-family:sans-serif;-inkscape-font-specification:sans-serif;fill:#000000;stroke-width:2.47067"
         d="m 107.58013,99.872988 1.47174,1.053682 -10.596766,14.79961 -1.47174,-1.05368 z" />
    </g>
  </g>
</svg>
